<svg width="48" height="48" viewBox="0 0 48 48" fill="none" xmlns="http://www.w3.org/2000/svg">
<path d="M24 0C10.7456 0 0 10.7445 0 24C0 37.2555 10.7456 48 24 48C37.2544 48 48 37.2544 48 24C48 10.7456 37.2544 0 24 0Z" fill="#2B2B2B"/>
<path d="M13.1434 20.2315C14.6751 20.2315 15.9168 18.9898 15.9168 17.4581C15.9168 15.9265 14.6751 14.6848 13.1434 14.6848C11.6118 14.6848 10.3701 15.9265 10.3701 17.4581C10.3701 18.9898 11.6118 20.2315 13.1434 20.2315Z" fill="white"/>
<path d="M13.1434 27.7686C11.5786 27.7686 10.3701 28.9419 10.3701 30.5419C10.3701 32.1419 11.5786 33.3152 13.1434 33.3152C14.7434 33.3152 15.9168 32.1419 15.9168 30.5419C15.9168 28.9419 14.7434 27.7686 13.1434 27.7686Z" fill="white"/>
<path d="M26.2739 11.7782H19.2979V36.2219H26.2739C31.7053 36.2219 35.7672 33.5809 37.4237 28.9761C37.957 27.4827 38.2248 25.8123 38.2248 24.0011C38.2346 22.3348 37.9749 20.6779 37.4557 19.0945C35.8013 14.4438 31.7256 11.7782 26.2739 11.7782ZM34.085 27.7857C32.9117 31.0923 30.1917 32.9921 26.6184 32.9921H22.6632V15.0081H26.6173C30.1576 15.0081 32.8797 16.8822 34.084 20.1505C34.5106 21.3014 34.7165 22.5611 34.7165 24.0011C34.7165 25.4411 34.5064 26.7126 34.085 27.7857Z" fill="white"/>
</svg>
